<svg width="37" height="37" viewBox="0 0 37 37" fill="none" xmlns="http://www.w3.org/2000/svg">
<g clip-path="url(#clip0_4707_13504)">
<g clip-path="url(#clip1_4707_13504)">
<path d="M31.4501 14.8C30.3401 14.8 29.6001 15.54 29.6001 16.65V35.15C29.6001 36.26 30.3401 37 31.4501 37C32.5601 37 33.3001 36.26 33.3001 35.15V16.65C33.3001 15.54 32.5601 14.8 31.4501 14.8Z" fill="white"/>
<path d="M24.0501 20.35C22.9401 20.35 22.2001 21.09 22.2001 22.2V35.15C22.2001 36.26 22.9401 37 24.0501 37C25.1601 37 25.9001 36.26 25.9001 35.15V22.2C25.9001 21.09 25.1601 20.35 24.0501 20.35Z" fill="white"/>
<path d="M16.65 25.9C15.54 25.9 14.8 26.64 14.8 27.75V35.15C14.8 36.26 15.54 37 16.65 37C17.76 37 18.5 36.26 18.5 35.15V27.75C18.5 26.64 17.76 25.9 16.65 25.9Z" fill="white"/>
<path d="M9.25002 31.45C8.14002 31.45 7.40002 32.19 7.40002 33.3V35.15C7.40002 36.26 8.14002 37 9.25002 37C10.36 37 11.1 36.26 11.1 35.15V33.3C11.1 32.19 10.36 31.45 9.25002 31.45Z" fill="white"/>
<path d="M35.1501 0H27.9351C26.8251 0 26.0851 0.74 26.0851 1.85C26.0851 2.96 26.8251 3.7 27.9351 3.7H30.7101L17.9451 16.28L8.14006 13.135C7.21506 12.95 6.29006 13.32 5.92006 14.245L0.370057 27.01C5.67632e-05 27.935 0.370057 29.045 1.29506 29.415C2.22006 29.785 3.33006 29.415 3.70006 28.49L8.69506 17.205L17.9451 20.165C18.6851 20.35 19.2401 20.165 19.7951 19.795L33.3001 6.29V9.065C33.3001 10.175 34.0401 10.915 35.1501 10.915C36.2601 10.915 37.0001 10.175 37.0001 9.065V1.85C37.0001 0.925 36.0751 0 35.1501 0Z" fill="white"/>
</g>
</g>
<defs>
<clipPath id="clip0_4707_13504">
<rect width="37" height="37" fill="white"/>
</clipPath>
<clipPath id="clip1_4707_13504">
<rect width="37" height="37" fill="white"/>
</clipPath>
</defs>
</svg>
