<svg width="436" height="58" viewBox="0 0 436 58" fill="none" xmlns="http://www.w3.org/2000/svg">
<g clip-path="url(#clip0_4707_13913)">
<mask id="path-1-inside-1_4707_13913" fill="white">
<path d="M0 0H436V58H0V0Z"/>
</mask>
<path d="M0 0H436V58H0V0Z" fill="white"/>
<path d="M0 1H436V-1H0V1Z" fill="#EEFAF8" mask="url(#path-1-inside-1_4707_13913)"/>
<path d="M25.766 20.4626L21.0536 27.1074C20.3441 28.1079 20.3441 29.7309 21.0536 30.7314V30.7314C21.7631 31.7319 22.9142 31.7319 23.6237 30.7314L29.8359 21.9718C31.1373 20.1368 31.1373 17.162 29.8359 15.3269V15.3269C28.5345 13.4919 26.4248 13.4919 25.1235 15.3269L18.9113 24.0866C17.0181 26.7561 17.0181 31.0827 18.9113 33.7522V33.7522C20.8045 36.4218 23.8728 36.4218 25.766 33.7522L29.5361 28.4361" stroke="#000E08" stroke-width="1.5" stroke-linecap="round" stroke-linejoin="round"/>
<rect x="46.2858" y="10.2903" width="383.276" height="37.4194" rx="12" fill="#F3F6F6"/>
<path d="M65.1699 31.6112L67.0059 24.8792H68.2179L65.7939 33.3872H64.5819L62.3619 26.4872L60.1659 33.3872H58.9899L56.5299 24.8792H57.7419L59.6139 31.5392L61.7499 24.8792H62.9859L65.1699 31.6112ZM72.1975 27.5552V28.7552C72.0295 28.7312 71.8655 28.7192 71.7055 28.7192C70.6495 28.7192 70.1215 29.3112 70.1215 30.4952V33.3872H68.9935V27.6152H70.0975V28.6232C70.4495 27.8872 71.0255 27.5192 71.8255 27.5192C71.9535 27.5192 72.0775 27.5312 72.1975 27.5552ZM74.5157 33.3872H73.3997V27.6152H74.5157V33.3872ZM73.3757 26.0072C73.2237 25.8472 73.1477 25.6552 73.1477 25.4312C73.1477 25.2072 73.2237 25.0152 73.3757 24.8552C73.5357 24.6952 73.7277 24.6152 73.9517 24.6152C74.1757 24.6152 74.3677 24.6952 74.5277 24.8552C74.6877 25.0072 74.7677 25.1992 74.7677 25.4312C74.7677 25.6552 74.6877 25.8472 74.5277 26.0072C74.3677 26.1592 74.1757 26.2352 73.9517 26.2352C73.7277 26.2352 73.5357 26.1592 73.3757 26.0072ZM77.9469 25.7912V27.6152H79.1949V28.6352H77.9469V31.6352C77.9469 31.9072 78.0069 32.1072 78.1269 32.2352C78.2549 32.3632 78.4629 32.4272 78.7509 32.4272C78.9189 32.4272 79.0669 32.4112 79.1949 32.3792V33.3392C79.0029 33.4112 78.7469 33.4472 78.4269 33.4472C77.9309 33.4472 77.5389 33.3032 77.2509 33.0152C76.9629 32.7272 76.8189 32.3232 76.8189 31.8032V28.6352H75.7149V27.6152H76.0269C76.3229 27.6152 76.5429 27.5352 76.6869 27.3752C76.8389 27.2072 76.9149 26.9912 76.9149 26.7272V25.7912H77.9469ZM81.3739 29.9072H84.5299C84.5139 29.4752 84.3699 29.1232 84.0979 28.8512C83.8259 28.5712 83.4419 28.4312 82.9459 28.4312C82.4979 28.4312 82.1299 28.5792 81.8419 28.8752C81.5539 29.1632 81.3979 29.5072 81.3739 29.9072ZM84.6979 31.4072L85.6699 31.7432C85.5019 32.2792 85.1899 32.7192 84.7339 33.0632C84.2779 33.3992 83.7259 33.5672 83.0779 33.5672C82.2699 33.5672 81.5819 33.2912 81.0139 32.7392C80.4539 32.1792 80.1739 31.4272 80.1739 30.4832C80.1739 29.6032 80.4459 28.8752 80.9899 28.2992C81.5339 27.7232 82.1819 27.4352 82.9339 27.4352C83.8059 27.4352 84.4859 27.7112 84.9739 28.2632C85.4619 28.8072 85.7059 29.5392 85.7059 30.4592C85.7059 30.6032 85.6979 30.7232 85.6819 30.8192H81.3379C81.3459 31.3312 81.5139 31.7512 81.8419 32.0792C82.1779 32.4072 82.5899 32.5712 83.0779 32.5712C83.9019 32.5712 84.4419 32.1832 84.6979 31.4072ZM91.5858 35.7992H90.3498L91.7898 32.7512L89.3058 27.6152H90.6018L92.4018 31.5992L94.1298 27.6152H95.3418L91.5858 35.7992ZM97.3807 32.0192C97.7327 32.3792 98.1607 32.5592 98.6647 32.5592C99.1687 32.5592 99.5927 32.3792 99.9367 32.0192C100.289 31.6512 100.465 31.1432 100.465 30.4952C100.465 29.8552 100.289 29.3552 99.9367 28.9952C99.5927 28.6272 99.1687 28.4432 98.6647 28.4432C98.1607 28.4432 97.7327 28.6272 97.3807 28.9952C97.0367 29.3552 96.8647 29.8552 96.8647 30.4952C96.8647 31.1432 97.0367 31.6512 97.3807 32.0192ZM96.5407 28.3112C97.1007 27.7272 97.8087 27.4352 98.6647 27.4352C99.5207 27.4352 100.225 27.7272 100.777 28.3112C101.337 28.8872 101.617 29.6152 101.617 30.4952C101.617 31.3832 101.341 32.1192 100.789 32.7032C100.237 33.2792 99.5287 33.5672 98.6647 33.5672C97.8007 33.5672 97.0927 33.2792 96.5407 32.7032C95.9887 32.1192 95.7127 31.3832 95.7127 30.4952C95.7127 29.6152 95.9887 28.8872 96.5407 28.3112ZM106.805 32.6912C106.653 32.9792 106.421 33.1992 106.109 33.3512C105.797 33.4952 105.461 33.5672 105.101 33.5672C104.445 33.5672 103.921 33.3512 103.529 32.9192C103.137 32.4792 102.941 31.9232 102.941 31.2512V27.6152H104.069V31.0832C104.069 31.5152 104.173 31.8712 104.381 32.1512C104.597 32.4312 104.929 32.5712 105.377 32.5712C105.825 32.5712 106.165 32.4392 106.397 32.1752C106.629 31.9032 106.745 31.5432 106.745 31.0952V27.6152H107.873V32.3192C107.873 32.6952 107.893 33.0512 107.933 33.3872H106.853C106.821 33.2112 106.805 32.9792 106.805 32.6912ZM113.002 27.5552V28.7552C112.834 28.7312 112.67 28.7192 112.51 28.7192C111.454 28.7192 110.926 29.3112 110.926 30.4952V33.3872H109.798V27.6152H110.902V28.6232C111.254 27.8872 111.83 27.5192 112.63 27.5192C112.758 27.5192 112.882 27.5312 113.002 27.5552ZM118.32 33.3872H117.204V27.6152H118.284V28.3832C118.46 28.0792 118.708 27.8472 119.028 27.6872C119.348 27.5272 119.684 27.4472 120.036 27.4472C120.412 27.4472 120.756 27.5392 121.068 27.7232C121.38 27.9072 121.612 28.1792 121.764 28.5392C122.164 27.8112 122.808 27.4472 123.696 27.4472C124.248 27.4472 124.716 27.6352 125.1 28.0112C125.492 28.3872 125.688 28.9312 125.688 29.6432V33.3872H124.572V29.7632C124.572 29.3632 124.468 29.0432 124.26 28.8032C124.06 28.5632 123.756 28.4432 123.348 28.4432C122.956 28.4432 122.636 28.5832 122.388 28.8632C122.14 29.1352 122.016 29.4792 122.016 29.8952V33.3872H120.888V29.7632C120.888 29.3632 120.784 29.0432 120.576 28.8032C120.376 28.5632 120.072 28.4432 119.664 28.4432C119.264 28.4432 118.94 28.5792 118.692 28.8512C118.444 29.1232 118.32 29.4752 118.32 29.9072V33.3872ZM128.225 29.9072H131.381C131.365 29.4752 131.221 29.1232 130.949 28.8512C130.677 28.5712 130.293 28.4312 129.797 28.4312C129.349 28.4312 128.981 28.5792 128.693 28.8752C128.405 29.1632 128.249 29.5072 128.225 29.9072ZM131.549 31.4072L132.521 31.7432C132.353 32.2792 132.041 32.7192 131.585 33.0632C131.129 33.3992 130.577 33.5672 129.929 33.5672C129.121 33.5672 128.433 33.2912 127.865 32.7392C127.305 32.1792 127.025 31.4272 127.025 30.4832C127.025 29.6032 127.297 28.8752 127.841 28.2992C128.385 27.7232 129.033 27.4352 129.785 27.4352C130.657 27.4352 131.337 27.7112 131.825 28.2632C132.313 28.8072 132.557 29.5392 132.557 30.4592C132.557 30.6032 132.549 30.7232 132.533 30.8192H128.189C128.197 31.3312 128.365 31.7512 128.693 32.0792C129.029 32.4072 129.441 32.5712 129.929 32.5712C130.753 32.5712 131.293 32.1832 131.549 31.4072ZM133.457 31.8872L134.477 31.5272C134.517 31.8392 134.653 32.0992 134.885 32.3072C135.117 32.5072 135.429 32.6072 135.821 32.6072C136.125 32.6072 136.365 32.5352 136.541 32.3912C136.717 32.2392 136.805 32.0552 136.805 31.8392C136.805 31.4552 136.557 31.2072 136.061 31.0952L135.077 30.8792C134.629 30.7832 134.277 30.5912 134.021 30.3032C133.765 30.0152 133.637 29.6672 133.637 29.2592C133.637 28.7632 133.837 28.3352 134.237 27.9752C134.645 27.6152 135.129 27.4352 135.689 27.4352C136.057 27.4352 136.385 27.4912 136.673 27.6032C136.961 27.7072 137.185 27.8472 137.345 28.0232C137.505 28.1992 137.625 28.3632 137.705 28.5152C137.785 28.6672 137.845 28.8232 137.885 28.9832L136.889 29.3552C136.873 29.2592 136.845 29.1672 136.805 29.0792C136.765 28.9832 136.701 28.8792 136.613 28.7672C136.533 28.6552 136.413 28.5672 136.253 28.5032C136.093 28.4312 135.905 28.3952 135.689 28.3952C135.409 28.3952 135.177 28.4712 134.993 28.6232C134.817 28.7752 134.729 28.9552 134.729 29.1632C134.729 29.5312 134.949 29.7632 135.389 29.8592L136.325 30.0632C136.837 30.1752 137.229 30.3832 137.501 30.6872C137.781 30.9832 137.921 31.3472 137.921 31.7792C137.921 32.2352 137.733 32.6472 137.357 33.0152C136.989 33.3832 136.473 33.5672 135.809 33.5672C135.097 33.5672 134.541 33.3912 134.141 33.0392C133.741 32.6792 133.513 32.2952 133.457 31.8872ZM138.883 31.8872L139.903 31.5272C139.943 31.8392 140.079 32.0992 140.311 32.3072C140.543 32.5072 140.855 32.6072 141.247 32.6072C141.551 32.6072 141.791 32.5352 141.967 32.3912C142.143 32.2392 142.231 32.0552 142.231 31.8392C142.231 31.4552 141.983 31.2072 141.487 31.0952L140.503 30.8792C140.055 30.7832 139.703 30.5912 139.447 30.3032C139.191 30.0152 139.063 29.6672 139.063 29.2592C139.063 28.7632 139.263 28.3352 139.663 27.9752C140.071 27.6152 140.555 27.4352 141.115 27.4352C141.483 27.4352 141.811 27.4912 142.099 27.6032C142.387 27.7072 142.611 27.8472 142.771 28.0232C142.931 28.1992 143.051 28.3632 143.131 28.5152C143.211 28.6672 143.271 28.8232 143.311 28.9832L142.315 29.3552C142.299 29.2592 142.271 29.1672 142.231 29.0792C142.191 28.9832 142.127 28.8792 142.039 28.7672C141.959 28.6552 141.839 28.5672 141.679 28.5032C141.519 28.4312 141.331 28.3952 141.115 28.3952C140.835 28.3952 140.603 28.4712 140.419 28.6232C140.243 28.7752 140.155 28.9552 140.155 29.1632C140.155 29.5312 140.375 29.7632 140.815 29.8592L141.751 30.0632C142.263 30.1752 142.655 30.3832 142.927 30.6872C143.207 30.9832 143.347 31.3472 143.347 31.7792C143.347 32.2352 143.159 32.6472 142.783 33.0152C142.415 33.3832 141.899 33.5672 141.235 33.5672C140.523 33.5672 139.967 33.3912 139.567 33.0392C139.167 32.6792 138.939 32.2952 138.883 31.8872ZM144.372 31.8392C144.372 31.3432 144.532 30.9472 144.852 30.6512C145.172 30.3472 145.596 30.1592 146.124 30.0872L147.684 29.8592C147.98 29.8192 148.128 29.6752 148.128 29.4272C148.128 29.1232 148.024 28.8752 147.816 28.6832C147.608 28.4912 147.296 28.3952 146.88 28.3952C146.496 28.3952 146.192 28.5032 145.968 28.7192C145.744 28.9272 145.612 29.2072 145.572 29.5592L144.492 29.3072C144.548 28.7552 144.8 28.3072 145.248 27.9632C145.696 27.6112 146.232 27.4352 146.856 27.4352C147.672 27.4352 148.276 27.6352 148.668 28.0352C149.06 28.4272 149.256 28.9312 149.256 29.5472V32.4392C149.256 32.7832 149.28 33.0992 149.328 33.3872H148.224C148.184 33.1472 148.164 32.8872 148.164 32.6072C148.004 32.8632 147.768 33.0872 147.456 33.2792C147.152 33.4712 146.768 33.5672 146.304 33.5672C145.736 33.5672 145.272 33.3992 144.912 33.0632C144.552 32.7192 144.372 32.3112 144.372 31.8392ZM146.46 32.6192C146.964 32.6192 147.368 32.4832 147.672 32.2112C147.976 31.9392 148.128 31.5072 148.128 30.9152V30.6512L146.364 30.9152C146.108 30.9552 145.904 31.0472 145.752 31.1912C145.6 31.3352 145.524 31.5312 145.524 31.7792C145.524 32.0032 145.608 32.1992 145.776 32.3672C145.952 32.5352 146.18 32.6192 146.46 32.6192ZM150.593 33.6992L151.685 33.4472C151.725 33.8552 151.889 34.1912 152.177 34.4552C152.465 34.7272 152.825 34.8632 153.257 34.8632C154.433 34.8632 155.021 34.2392 155.021 32.9912V32.1632C154.877 32.4432 154.649 32.6712 154.337 32.8472C154.033 33.0232 153.673 33.1112 153.257 33.1112C152.489 33.1112 151.853 32.8512 151.349 32.3312C150.853 31.8032 150.605 31.1312 150.605 30.3152C150.605 29.5232 150.853 28.8592 151.349 28.3232C151.845 27.7792 152.481 27.5072 153.257 27.5072C154.137 27.5072 154.729 27.8112 155.033 28.4192V27.6152H156.149V32.9552C156.149 33.3392 156.097 33.6952 155.993 34.0232C155.897 34.3592 155.741 34.6672 155.525 34.9472C155.309 35.2272 155.005 35.4472 154.613 35.6072C154.229 35.7672 153.777 35.8472 153.257 35.8472C152.545 35.8472 151.941 35.6432 151.445 35.2352C150.949 34.8352 150.665 34.3232 150.593 33.6992ZM153.425 32.1632C153.913 32.1632 154.309 31.9952 154.613 31.6592C154.917 31.3152 155.069 30.8672 155.069 30.3152C155.069 29.7632 154.917 29.3192 154.613 28.9832C154.309 28.6392 153.913 28.4672 153.425 28.4672C152.929 28.4672 152.525 28.6352 152.213 28.9712C151.909 29.3072 151.757 29.7552 151.757 30.3152C151.757 30.8832 151.905 31.3352 152.201 31.6712C152.505 31.9992 152.913 32.1632 153.425 32.1632ZM158.683 29.9072H161.839C161.823 29.4752 161.679 29.1232 161.407 28.8512C161.135 28.5712 160.751 28.4312 160.255 28.4312C159.807 28.4312 159.439 28.5792 159.151 28.8752C158.863 29.1632 158.707 29.5072 158.683 29.9072ZM162.007 31.4072L162.979 31.7432C162.811 32.2792 162.499 32.7192 162.043 33.0632C161.587 33.3992 161.035 33.5672 160.387 33.5672C159.579 33.5672 158.891 33.2912 158.323 32.7392C157.763 32.1792 157.483 31.4272 157.483 30.4832C157.483 29.6032 157.755 28.8752 158.299 28.2992C158.843 27.7232 159.491 27.4352 160.243 27.4352C161.115 27.4352 161.795 27.7112 162.283 28.2632C162.771 28.8072 163.015 29.5392 163.015 30.4592C163.015 30.6032 163.007 30.7232 162.991 30.8192H158.647C158.655 31.3312 158.823 31.7512 159.151 32.0792C159.487 32.4072 159.899 32.5712 160.387 32.5712C161.211 32.5712 161.751 32.1832 162.007 31.4072Z" fill="#797C7B"/>
</g>
<defs>
<clipPath id="clip0_4707_13913">
<rect width="436" height="58" fill="white"/>
</clipPath>
</defs>
</svg>
