<svg width="65" height="66" viewBox="0 0 65 66" fill="none" xmlns="http://www.w3.org/2000/svg">
<g clip-path="url(#clip0_4707_13899)">
<path d="M64.9999 23.2504L57.6756 15.9261L60.6535 12.9481V4.84649H52.5519L49.5739 7.82443L42.2496 0.500127L35.2643 0.5L26.0353 9.72898L26.0354 16.7142L33.3597 24.0385L4.91778 52.4806C2.08978 53.2343 0 55.8165 0 58.8786C0 62.5297 2.97032 65.5 6.62137 65.5C9.68348 65.5 12.2657 63.4102 13.0194 60.5822L41.4615 32.1403L48.7858 39.4646L55.771 39.4647L65 30.2357L64.9999 23.2504ZM57.6983 21.3349L46.8703 32.1629L33.3375 18.6302L44.1655 7.80222L57.6983 21.3349ZM54.1294 8.65509H56.8449V11.3706L54.9825 13.233L52.267 10.5175L54.1294 8.65509ZM29.844 11.3065L36.8419 4.30859H40.672L41.4724 5.10903L30.6445 15.937L29.844 15.1366V11.3065ZM9.74314 53.0413L12.5922 50.1922L15.3078 52.9078L12.4587 55.7569C11.841 54.6065 10.8935 53.659 9.74314 53.0413ZM15.2853 47.4992L18.3767 44.4078L21.0922 47.1233L18.0008 50.2147L15.2853 47.4992ZM21.0699 41.7147L24.1613 38.6233L26.8769 41.3388L23.7854 44.4302L21.0699 41.7147ZM26.8544 35.9301L29.9458 32.8386L32.6614 35.5542L29.5699 38.6456L26.8544 35.9301ZM6.62137 61.6914C5.07038 61.6914 3.80859 60.4296 3.80859 58.8786C3.80859 57.3276 5.07038 56.0659 6.62137 56.0659C8.17235 56.0659 9.43414 57.3276 9.43414 58.8786C9.43414 60.4296 8.17235 61.6914 6.62137 61.6914ZM35.3545 32.861L32.639 30.1455L36.0529 26.7316L38.7684 29.4471L35.3545 32.861ZM61.1914 28.6581L54.1935 35.656H50.3634L49.5634 34.8559L60.3913 24.028L61.1914 24.828V28.6581Z" fill="white"/>
<path d="M46.1382 15.5532H49.9468V19.3618H46.1382V15.5532Z" fill="white"/>
<path d="M41.0886 20.6028H44.8972V24.4114H41.0886V20.6028Z" fill="white"/>
</g>
<defs>
<clipPath id="clip0_4707_13899">
<rect width="65" height="65" fill="white" transform="translate(0 0.5)"/>
</clipPath>
</defs>
</svg>
