<svg width="28" height="32" viewBox="0 0 28 32" fill="none" xmlns="http://www.w3.org/2000/svg">
<g clip-path="url(#clip0_4707_13914)">
<path d="M8.67051 23.6847L8.67051 13.4588C8.67051 10.635 10.6584 8.34586 13.1107 8.34586L19.7709 8.34586M8.67051 23.6847C8.67051 26.5085 10.6584 28.7976 13.1107 28.7976H15.7117C16.8893 28.7976 18.0186 28.259 18.8513 27.3001L22.9106 22.6258C23.7433 21.6669 24.2111 20.3664 24.2111 19.0104V13.4588C24.2111 10.635 22.2232 8.34586 19.7709 8.34586M8.67051 23.6847C6.21828 23.6847 4.23035 21.3956 4.23035 18.5718L4.23035 8.34586C4.23035 5.52205 6.21828 3.23291 8.67051 3.23291L15.3308 3.23291C17.783 3.23291 19.7709 5.52206 19.7709 8.34586M17.5508 28.7976V26.2412C17.5508 23.4174 19.5388 21.1282 21.991 21.1282H24.2111" stroke="#797C7B" stroke-width="1.5" stroke-linejoin="round"/>
</g>
<defs>
<clipPath id="clip0_4707_13914">
<rect width="26.641" height="30.6777" fill="white" transform="translate(0.900238 0.676514)"/>
</clipPath>
</defs>
</svg>
