<svg width="32" height="32" viewBox="0 0 32 32" fill="none" xmlns="http://www.w3.org/2000/svg">
<g clip-path="url(#clip0_4707_13906)">
<g clip-path="url(#clip1_4707_13906)">
<path d="M22.6666 0L30.6666 3.33333L22.6666 6.66667L14.6666 3.33333L22.6666 0Z" fill="white"/>
<path d="M21.3333 8.27733L14.6666 5.5V12.6667C14.6666 12.9467 14.8413 13.1973 15.1053 13.2933L21.3333 15.5573V8.27733Z" fill="white"/>
<path d="M24 8.27733V15.5573L30.228 13.2933C30.492 13.1973 30.6667 12.9467 30.6667 12.6667V5.5L24 8.27733Z" fill="white"/>
<path d="M6.66663 26.6667V28.6667C6.66663 30.5041 8.16129 32.0001 9.99996 32.0001H16.6666C18.5053 32.0001 20 30.5041 20 28.6667V26.6667H6.66663Z" fill="white"/>
<path d="M21.536 18.4693L14.1934 15.8C12.8814 15.3213 12 14.0627 12 12.6667V3.33333C12 1.93467 12.7587 0.722667 14.5707 0.064C14.164 0.0226667 13.7507 0 13.3334 0C6.71604 0 1.33337 5.384 1.33337 12C1.33337 14.9493 2.41737 17.7867 4.38671 19.9893C5.40937 21.132 6.10271 22.5147 6.43604 24H20.2294C20.5627 22.5147 21.2574 21.132 22.2787 19.9893C22.6734 19.548 23.0214 19.076 23.3427 18.5893C22.7587 18.712 22.1707 18.6973 21.536 18.4693Z" fill="white"/>
</g>
</g>
<defs>
<clipPath id="clip0_4707_13906">
<rect width="32" height="32" fill="white"/>
</clipPath>
<clipPath id="clip1_4707_13906">
<rect width="32" height="32" fill="white"/>
</clipPath>
</defs>
</svg>
