<svg width="43" height="42" viewBox="0 0 43 42" fill="none" xmlns="http://www.w3.org/2000/svg">
<g clip-path="url(#clip0_4704_11769)">
<g clip-path="url(#clip1_4704_11769)">
<path d="M36.1575 12.8711C36.8446 13.816 37.9614 14.4325 39.2207 14.4325C41.3046 14.4325 43 12.7461 43 10.6733C43 8.60048 41.3046 6.9141 39.2207 6.9141C37.2069 6.9141 35.5563 8.48896 35.4475 10.4654L23.7712 13.5169L17.7689 5.51384C18.5221 4.0942 18.2991 2.29229 17.0997 1.09928C15.6261 -0.36647 13.2284 -0.366387 11.755 1.09928C10.2814 2.56496 10.2814 4.94988 11.755 6.41555C12.1049 6.76365 12.5073 7.02805 12.9367 7.21075L12.3911 16.4909L6.85808 17.9369C6.17235 16.9799 5.0483 16.3539 3.7793 16.3539C1.69539 16.3539 0 18.0403 0 20.1131C0 22.1859 1.69539 23.8723 3.7793 23.8723C3.92644 23.8723 4.07148 23.863 4.21425 23.8466L9.45992 35.8172C8.9031 36.4721 8.56641 37.3179 8.56641 38.2408C8.56641 40.3136 10.2618 42 12.3457 42C14.4296 42 16.125 40.3136 16.125 38.2408C16.125 37.6851 16.0022 37.1576 15.7837 36.6826L26.9586 25.3573C27.4439 25.5832 27.9845 25.7101 28.5547 25.7101C28.936 25.7101 29.304 25.6531 29.6512 25.5482L32.5249 29.3799C31.5522 30.839 31.7114 32.8299 33.0031 34.1146C33.7398 34.8475 34.7076 35.2139 35.6755 35.2139C36.6432 35.2139 37.6111 34.8475 38.3478 34.1146C39.8214 32.6489 39.8214 30.264 38.3478 28.7983C37.3187 27.7747 35.8392 27.4669 34.5382 27.873L31.6799 24.062C32.0924 23.4598 32.3339 22.733 32.3339 21.9509C32.3339 19.8781 30.6385 18.1917 28.5546 18.1917C28.1557 18.1917 27.7711 18.2539 27.4098 18.3685L25.396 15.6835L36.1575 12.8711ZM39.2207 9.42024C39.9153 9.42024 40.4805 9.98237 40.4805 10.6733C40.4805 11.3642 39.9153 11.9264 39.2207 11.9264C38.5261 11.9264 37.9609 11.3642 37.9609 10.6733C37.9609 9.98237 38.5261 9.42024 39.2207 9.42024ZM13.5366 2.87137C13.7823 2.62711 14.1048 2.50498 14.4273 2.50498C14.75 2.50498 15.0726 2.62711 15.3182 2.87137C15.5561 3.10804 15.6872 3.42272 15.6872 3.75738C15.6872 4.09211 15.5561 4.40672 15.3182 4.64346C15.0802 4.88012 14.7638 5.01044 14.4273 5.01044C14.0909 5.01044 13.7745 4.88012 13.5366 4.64346C13.0454 4.15493 13.0454 3.35999 13.5366 2.87137ZM15.4509 7.37448C15.6042 7.33188 15.7551 7.27941 15.903 7.21726L21.1429 14.2038L14.9544 15.8211L15.4509 7.37448ZM11.3678 33.8988L6.4783 22.7409C7.0945 22.1149 7.49275 21.2763 7.55053 20.3473L12.2365 19.1227L11.3678 33.8988ZM2.51953 20.1131C2.51953 19.4221 3.08466 18.86 3.7793 18.86C4.47393 18.86 5.03906 19.4221 5.03906 20.1131C5.03906 20.804 4.47393 21.3662 3.7793 21.3662C3.08466 21.3662 2.51953 20.804 2.51953 20.1131ZM12.3457 39.4939C11.6511 39.4939 11.0859 38.9317 11.0859 38.2408C11.0859 37.5499 11.6511 36.9877 12.3457 36.9877C13.0403 36.9877 13.6055 37.5499 13.6055 38.2408C13.6055 38.9317 13.0403 39.4939 12.3457 39.4939ZM35.6754 30.2034C36.0119 30.2034 36.3283 30.3337 36.5662 30.5703C36.8041 30.807 36.9352 31.1217 36.9352 31.4564C36.9352 31.7911 36.8041 32.1058 36.5662 32.3424C36.075 32.831 35.276 32.8311 34.7846 32.3424C34.2933 31.8538 34.2933 31.0589 34.7846 30.5703C35.0226 30.3337 35.3389 30.2034 35.6754 30.2034ZM29.8145 21.9509C29.8145 22.6419 29.2493 23.204 28.5547 23.204C27.8601 23.204 27.2949 22.6419 27.2949 21.9509C27.2949 21.26 27.8601 20.6978 28.5547 20.6978C29.2493 20.6978 29.8145 21.26 29.8145 21.9509ZM25.4015 19.8819C25.0063 20.4758 24.7754 21.1869 24.7754 21.9509C24.7754 22.543 24.9142 23.1032 25.1604 23.602L14.0334 34.8786C13.9696 34.8469 13.9051 34.8165 13.8394 34.7883L14.7997 18.4528L22.7678 16.3703L25.4015 19.8819Z" fill="white"/>
</g>
</g>
<defs>
<clipPath id="clip0_4704_11769">
<rect width="43" height="42" fill="white"/>
</clipPath>
<clipPath id="clip1_4704_11769">
<rect width="43" height="42" fill="white"/>
</clipPath>
</defs>
</svg>
