<svg width="37" height="37" viewBox="0 0 37 37" fill="none" xmlns="http://www.w3.org/2000/svg">
<g clip-path="url(#clip0_4707_13920)">
<g clip-path="url(#clip1_4707_13920)">
<path d="M21.4254 0C13.0072 0 6.18218 6.825 6.18218 15.2432C6.18218 18.6644 7.32343 21.8124 9.22685 24.3561L0.331421 33.2515L4.07993 37L13.0854 27.9946C15.4832 29.5653 18.345 30.4865 21.4254 30.4865C29.8437 30.4865 36.6687 23.6615 36.6687 15.2432C36.6687 6.825 29.8437 0 21.4254 0ZM21.4254 26.51C15.2128 26.51 10.1587 21.4559 10.1587 15.2432C10.1587 9.03063 15.2128 3.9765 21.4254 3.9765C27.638 3.9765 32.6922 9.03063 32.6922 15.2432C32.6922 21.4559 27.638 26.51 21.4254 26.51Z" fill="white"/>
<path d="M18.1118 12.5923H14.1353V21.8708H18.1118V12.5923Z" fill="white"/>
<path d="M23.4138 7.29028H19.4373V21.8708H23.4138V7.29028Z" fill="white"/>
<path d="M28.7158 9.94128H24.7393V21.8708H28.7158V9.94128Z" fill="white"/>
</g>
</g>
<defs>
<clipPath id="clip0_4707_13920">
<rect width="37" height="37" fill="white"/>
</clipPath>
<clipPath id="clip1_4707_13920">
<rect width="37" height="37" fill="white"/>
</clipPath>
</defs>
</svg>
