<svg width="43" height="43" viewBox="0 0 43 43" fill="none" xmlns="http://www.w3.org/2000/svg">
<g clip-path="url(#clip0_4707_13919)">
<g clip-path="url(#clip1_4707_13919)">
<path d="M41.1788 0.0438232H1.82997C0.82305 0.0438232 0 0.866874 0 1.8738V41.1263C0 42.1332 0.82305 42.9563 1.82997 42.9563H41.0825C42.0894 42.9563 42.9124 42.1332 43 41.2226V1.8738C43 0.866874 42.1769 0.0438232 41.1788 0.0438232ZM39.3488 39.3839H3.56363V3.60746H39.3488V39.3839Z" fill="white"/>
<path d="M10.4107 32.4492C11.4176 32.4492 12.2406 31.6262 12.2406 30.6193V12.3633C12.2406 11.3564 11.4176 10.5333 10.4107 10.5333C9.40374 10.5333 8.58069 11.3564 8.58069 12.3633V30.6193C8.58944 31.6262 9.41249 32.4492 10.4107 32.4492Z" fill="white"/>
<path d="M17.897 14.1057H32.5018C33.5087 14.1057 34.3317 13.2827 34.3317 12.2758C34.3317 11.2689 33.5087 10.4458 32.5018 10.4458H17.897C16.8901 10.4458 16.067 11.2689 16.067 12.2758C16.0758 13.2827 16.8988 14.1057 17.897 14.1057Z" fill="white"/>
<path d="M17.897 23.3256H32.5018C33.5087 23.3256 34.3317 22.5025 34.3317 21.4956C34.3317 20.4887 33.5087 19.6656 32.5018 19.6656H17.897C16.8901 19.6656 16.067 20.4887 16.067 21.4956C16.067 22.5025 16.8988 23.3256 17.897 23.3256Z" fill="white"/>
<path d="M17.897 32.4493H32.5018C33.5087 32.4493 34.3317 31.6262 34.3317 30.6193C34.3317 29.6124 33.5087 28.7893 32.5018 28.7893H17.897C16.8901 28.7893 16.067 29.6124 16.067 30.6193C16.067 31.6262 16.8988 32.4493 17.897 32.4493Z" fill="white"/>
</g>
</g>
<defs>
<clipPath id="clip0_4707_13919">
<rect width="43" height="43" fill="white"/>
</clipPath>
<clipPath id="clip1_4707_13919">
<rect width="43" height="43" fill="white"/>
</clipPath>
</defs>
</svg>
