<svg width="43" height="43" viewBox="0 0 43 43" fill="none" xmlns="http://www.w3.org/2000/svg">
<g clip-path="url(#clip0_4707_13971)">
<path d="M39.2266 20.7863C40.346 14.7063 38.5186 6.34855 31.8599 2.3658C27.6543 0.00656455 22.6938 -0.617668 18.0348 0.626095C11.5811 2.35187 6.83744 6.98286 5.34575 13.0139C5.01319 14.2371 4.87222 15.5046 4.92806 16.771C4.99951 17.5568 5.1445 18.3341 5.3612 19.0928C5.65279 20.0583 5.7972 21.0623 5.78939 22.0709C5.75933 23.2715 4.93234 24.5172 4.2019 25.6164C3.40564 26.8159 2.71793 27.8518 3.11673 28.8071C3.49522 29.4547 4.16135 29.8814 4.90782 29.9546C4.95081 29.9623 4.9943 29.9668 5.03796 29.9679C5.23745 29.9434 5.43743 30.0096 5.58293 30.1483C5.72844 30.287 5.80417 30.4835 5.78939 30.684C5.78939 32.1728 5.8265 32.941 6.4415 33.2933C6.38785 33.4053 6.3504 33.5244 6.33025 33.6469C6.26846 34.0672 6.41983 34.4906 6.73392 34.7765C7.04625 35.079 7.44195 35.281 7.87014 35.3565C7.90019 35.3635 7.92891 35.3688 7.95687 35.3754C7.97382 35.4819 7.9813 35.5897 7.97928 35.6976C7.97416 35.964 7.95527 36.2301 7.92261 36.4946C7.80364 37.6406 7.64068 39.2103 9.93342 39.9596C10.3936 40.0882 10.8706 40.1463 11.3481 40.1317C13.5191 40.0354 15.6647 39.624 17.7175 38.9108C18.3101 39.9443 18.6675 41.0959 18.7638 42.2835C18.7637 42.4735 18.8392 42.6558 18.9736 42.7902C19.1079 42.9245 19.2902 43 19.4803 43H37.3914C37.6978 42.9962 37.9674 42.7967 38.0603 42.5047C38.1545 42.2086 38.0519 41.8854 37.8042 41.6979C37.063 41.135 34.6081 35.205 34.5326 33.0749C34.749 32.5837 35.0388 32.0321 35.382 31.3913C37.2509 28.0978 38.5506 24.5124 39.2266 20.7863ZM33.0944 33.003C33.1126 34.7164 34.6573 39.2438 35.9844 41.5672H20.136C19.9576 40.4694 19.6019 39.408 19.0829 38.4244C21.1587 37.6109 22.9872 36.5648 23.8649 35.4169C24.1038 35.1023 24.0432 34.6537 23.7292 34.4139C23.4154 34.174 22.9667 34.2334 22.7259 34.5465C20.6983 37.1996 12.2618 39.2139 10.3783 38.5978C9.18543 38.2077 9.23295 37.7498 9.34772 36.643C9.38576 36.3293 9.40725 36.0137 9.41212 35.6978C9.41212 34.4906 8.92516 34.1302 8.19329 33.9605C8.05518 33.9408 7.92328 33.8898 7.80775 33.8115C7.94839 33.6771 8.10799 33.5641 8.28145 33.476C8.58051 33.3291 8.73886 32.9954 8.66346 32.6708C8.58807 32.3463 8.29908 32.1165 7.96585 32.1162C7.707 32.1162 7.41945 32.1162 7.26832 32.0973C7.22281 31.6277 7.20737 31.1556 7.22214 30.684C7.23616 30.1191 7.0214 29.5724 6.62662 29.1681C6.23185 28.7637 5.6904 28.536 5.12528 28.5365C4.60893 28.4277 4.45218 28.2877 4.43891 28.2552C4.33464 28.0065 5.0252 26.9675 5.39604 26.4092C6.19155 25.2114 7.18159 23.7204 7.22214 22.1074C7.24221 21.2123 7.14263 20.3186 6.92602 19.4499C7.70726 18.7624 8.62921 18.254 9.62756 17.9602C9.98329 17.8981 10.3488 17.9237 10.6924 18.0347C11.0738 18.1398 11.4682 17.9158 11.5733 17.5344C11.6784 17.153 11.4544 16.7587 11.0731 16.6535C10.5089 16.4799 9.91075 16.4472 9.33093 16.558C8.31847 16.8159 7.37226 17.2858 6.55484 17.9367C6.45694 17.5193 6.3907 17.0952 6.3567 16.6678C6.30817 15.5513 6.43637 14.4342 6.73661 13.3577C8.12193 7.75872 12.3744 3.62275 18.4054 2.00999C22.6896 0.861012 27.253 1.43 31.1238 3.5958C37.1961 7.22734 38.8501 14.918 37.8174 20.5267C37.1735 24.1086 35.9227 27.5542 34.119 30.7151C33.7251 31.4501 33.3851 32.0847 33.1395 32.672C33.098 32.7771 33.0825 32.8906 33.0944 33.003Z" fill="white"/>
<path d="M34.5164 22.4231C34.6189 21.318 33.8623 20.3168 32.7711 20.1136L31.3992 18.2118C31.4833 18.0567 31.5478 17.8916 31.5911 17.7204L32.9197 17.1891C33.5334 17.8877 34.5273 18.1112 35.3808 17.7425C36.2343 17.3739 36.753 16.4971 36.6652 15.5714C36.5774 14.6458 35.9029 13.8823 34.9952 13.6808L33.9188 11.5338C34.6739 10.7645 34.7391 9.5537 34.071 8.70781C33.4028 7.86185 32.21 7.64473 31.2867 8.20104L30.0864 7.20453C30.1772 6.9671 30.2247 6.71539 30.2268 6.46116C30.2287 5.58338 29.6955 4.79299 28.8808 4.46614C28.0662 4.1392 27.1345 4.3418 26.5291 4.97745L24.4051 4.44649C24.1507 3.52513 23.3151 2.88486 22.3593 2.87907C21.4034 2.87327 20.5601 3.5033 20.2945 4.42147L17.4559 4.9892C16.7155 4.19075 15.4934 4.07598 14.6173 4.72272C13.7412 5.36936 13.4907 6.57098 14.0354 7.51384L12.6445 9.36622C11.6477 9.54639 10.9133 10.3998 10.8836 11.4123C10.854 12.4247 11.5373 13.3197 12.5218 13.5579L13.672 16.3972C13.0409 17.0167 12.8546 17.9599 13.2027 18.7729C13.5508 19.5857 14.362 20.1018 15.2458 20.0726C16.1295 20.0434 16.905 19.475 17.1987 18.6409H21.045C21.3662 19.6287 22.3683 20.2269 23.3902 20.0406L25.7686 23.6585C25.1584 24.335 25.0425 25.3232 25.4794 26.1227C25.9163 26.922 26.8108 27.358 27.7097 27.2097C28.6085 27.0613 29.3155 26.3611 29.4724 25.4637L31.2479 24.0445C31.5857 24.2575 31.9767 24.3712 32.3761 24.3726C33.4861 24.3733 34.4139 23.5284 34.5164 22.4231ZM34.5255 15.0585C34.8839 15.0578 35.1876 15.3219 35.2367 15.6768C35.2858 16.0317 35.065 16.3684 34.7201 16.4649C34.3751 16.5615 34.0117 16.3883 33.8694 16.0594C33.867 16.0528 33.8683 16.046 33.8657 16.0395L33.8612 16.0325C33.8278 15.9507 33.8101 15.8634 33.809 15.7749C33.8095 15.3795 34.13 15.0589 34.5255 15.0585ZM31.6748 9.89776C31.7436 9.5652 32.0367 9.32667 32.3763 9.32692C32.772 9.32692 33.0927 9.64765 33.0927 10.0433C33.0927 10.439 32.772 10.7598 32.3763 10.7598C32.2876 10.7587 32.2 10.741 32.1179 10.7075L32.1118 10.7035C32.1055 10.701 32.0989 10.7023 32.0924 10.6999C31.7804 10.5655 31.606 10.2304 31.6748 9.89776ZM30.9621 11.6492L29.6381 14.9595L27.3173 13.1029C27.6321 12.8343 27.8622 12.4801 27.9797 12.0832L30.8183 11.5155C30.8634 11.5632 30.9127 11.6057 30.9621 11.6492ZM30.1993 17.4015C30.1028 17.746 29.7668 17.9665 29.4122 17.9177C29.0577 17.8688 28.7937 17.5658 28.794 17.2079C28.7944 16.8123 29.1149 16.4918 29.5104 16.4914C29.5991 16.4925 29.6867 16.5103 29.7688 16.5437L29.7749 16.5477C29.7814 16.5503 29.7882 16.5492 29.7946 16.5516C30.123 16.694 30.2958 17.0568 30.1993 17.4015ZM28.0775 5.74474C28.4732 5.74474 28.7939 6.06547 28.7939 6.46116C28.7939 6.85686 28.4731 7.17758 28.0775 7.17758C27.6819 7.17758 27.3611 6.85686 27.3611 6.46116C27.3615 6.06563 27.682 5.74516 28.0775 5.74474ZM24.3073 5.89889L25.9437 6.30802C25.9399 6.35957 25.9283 6.40877 25.9283 6.46125C25.9295 7.64775 26.8911 8.60933 28.0776 8.61059C28.4618 8.60857 28.8383 8.50253 29.167 8.30364L30.3674 9.30014C30.2766 9.53758 30.2289 9.78928 30.2269 10.0435C30.2269 10.0868 30.2373 10.1274 30.2397 10.1701L27.9063 10.6368C27.6137 9.95569 26.9909 9.47335 26.2583 9.36042L23.6351 6.7373C23.9263 6.51901 24.1576 6.23061 24.3073 5.89889ZM26.6447 11.4763C26.6447 11.872 26.3239 12.1928 25.9283 12.1928C25.5327 12.1923 25.2122 11.8719 25.2118 11.4763C25.2118 11.0807 25.5326 10.7599 25.9283 10.7599C26.3239 10.7599 26.6447 11.0807 26.6447 11.4763ZM22.346 4.31182C22.7417 4.31182 23.0624 4.63254 23.0624 5.02824C23.0624 5.42394 22.7417 5.74466 22.346 5.74466C21.9503 5.74466 21.6296 5.42394 21.6296 5.02824C21.6299 4.6328 21.9505 4.31224 22.346 4.31182ZM22.488 7.61669L24.639 9.76745C24.3046 10.0201 24.0514 10.3651 23.9109 10.7598H22.2139C22.0447 10.2855 21.7141 9.88575 21.2799 9.63052L22.488 7.61669ZM18.0345 6.33464L20.3679 5.868C20.551 6.29031 20.8647 6.64293 21.2628 6.87407L19.9622 9.04163L17.714 7.59905C17.9306 7.25894 18.0461 6.86433 18.0473 6.46116C18.0473 6.41784 18.037 6.37729 18.0345 6.33464ZM20.9131 11.4763C20.9131 11.872 20.5923 12.1928 20.1966 12.1928C19.8011 12.1923 19.4806 11.8719 19.4802 11.4763C19.4802 11.0807 19.8009 10.7599 20.1966 10.7599C20.5923 10.7599 20.9131 11.0807 20.9131 11.4763ZM15.898 5.74474C16.2937 5.74474 16.6144 6.06547 16.6144 6.46116C16.6144 6.85686 16.2937 7.17758 15.898 7.17758C15.5023 7.17758 15.1815 6.85686 15.1815 6.46116C15.1819 6.06563 15.5024 5.74516 15.898 5.74474ZM15.1182 8.45879C15.5547 8.6388 16.0406 8.65937 16.4908 8.51697L18.7029 9.93629C18.4674 10.1669 18.2883 10.4488 18.1794 10.7598H15.0495C14.8931 10.3164 14.5957 9.9363 14.2028 9.67795L15.1182 8.45879ZM13.0321 12.1928C12.6364 12.1928 12.3157 11.872 12.3157 11.4763C12.3161 11.0808 12.6366 10.7603 13.0321 10.7599C13.4278 10.7599 13.7485 11.0807 13.7485 11.4763C13.7485 11.872 13.4278 12.1928 13.0321 12.1928ZM15.1815 18.6408C14.7858 18.6408 14.465 18.32 14.465 17.9244C14.465 17.5287 14.7858 17.208 15.1815 17.208C15.5772 17.208 15.8979 17.5288 15.8979 17.9244C15.8975 18.3199 15.577 18.6404 15.1815 18.6408ZM15.5889 15.8162C15.4547 15.7895 15.3182 15.7757 15.1815 15.7749C15.1105 15.7749 15.0435 15.7891 14.9743 15.7959L13.9981 13.3857C14.4883 13.1373 14.8645 12.7103 15.0494 12.1928H18.1793C18.3083 12.5536 18.5317 12.8733 18.8263 13.1183L15.5889 15.8162ZM21.0451 17.2079H17.1987C17.1222 16.9933 17.0118 16.7923 16.8718 16.6126L20.3904 13.6804L21.5886 16.3678C21.3438 16.601 21.1576 16.8889 21.0451 17.2079ZM22.2139 12.1928H23.911C24.0802 12.6671 24.4108 13.0669 24.845 13.3221L23.3554 15.8047C23.2585 15.788 23.1607 15.7781 23.0625 15.775C23.007 15.775 22.9549 15.7873 22.9004 15.7914L21.6705 13.0329C21.9153 12.7996 22.1015 12.5117 22.2139 12.1928ZM23.0624 18.6408C22.6667 18.6408 22.346 18.32 22.346 17.9244C22.346 17.5287 22.6668 17.208 23.0624 17.208C23.4581 17.208 23.7788 17.5288 23.7788 17.9244C23.7785 18.3199 23.4579 18.6404 23.0624 18.6408ZM26.1206 13.9807L28.1214 15.5814C27.8067 15.8501 27.5765 16.2043 27.459 16.6011L25.0405 17.0848C24.9408 16.8558 24.8021 16.646 24.6305 16.4647L26.1206 13.9807ZM27.3611 25.8052C26.9654 25.8052 26.6447 25.4845 26.6447 25.0888C26.6447 24.6931 26.9654 24.3724 27.3611 24.3724C27.7568 24.3724 28.0775 24.6931 28.0775 25.0888C28.0772 25.4843 27.7566 25.8049 27.3611 25.8052ZM30.2268 22.2231C30.2295 22.4624 30.2725 22.6996 30.3542 22.9246L29.1448 23.8914C28.6926 23.1851 27.8583 22.822 27.0332 22.9726L24.6548 19.3548C24.8673 19.1178 25.0241 18.8365 25.1139 18.5312L27.5324 18.0475C27.9935 19.1366 29.2484 19.6475 30.339 19.1903L31.2228 20.4154C30.6037 20.8082 30.2281 21.4898 30.2268 22.2231ZM30.9246 15.6021L32.2916 12.1842C32.3203 12.1854 32.3472 12.1928 32.3762 12.1928C32.4625 12.1894 32.5486 12.1807 32.6339 12.1667L33.5013 13.8972C32.8107 14.2698 32.379 14.9903 32.3762 15.775C32.3762 15.8041 32.3837 15.831 32.3848 15.8598L31.4215 16.2449C31.2983 16.001 31.1297 15.7828 30.9246 15.6021ZM32.3762 22.9395C31.9805 22.9395 31.6598 22.6188 31.6598 22.2231C31.6602 21.8275 31.9807 21.507 32.3762 21.5066C32.7719 21.5066 33.0926 21.8274 33.0926 22.2231C33.0926 22.6188 32.7719 22.9395 32.3762 22.9395Z" fill="white"/>
</g>
<defs>
<clipPath id="clip0_4707_13971">
<rect width="42.5336" height="43" fill="white"/>
</clipPath>
</defs>
</svg>
