<svg width="34" height="34" viewBox="0 0 34 34" fill="none" xmlns="http://www.w3.org/2000/svg">
<g clip-path="url(#clip0_4707_12123)">
<path d="M17 0C7.62609 0 0 7.62663 0 17C0 26.3734 7.62609 34 17 34C26.3734 34 34 26.3739 34 17C34 7.62609 26.3734 0 17 0ZM17 2.125C25.202 2.125 31.875 8.7975 31.875 17C31.875 19.9766 30.9931 22.7487 29.4817 25.0766C28.7087 21.3185 26.2634 18.0657 22.8289 16.2934C23.8324 15.0248 24.4375 13.4268 24.4375 11.6875C24.4375 7.58625 21.1012 4.25 17 4.25C12.8988 4.25 9.5625 7.58625 9.5625 11.6875C9.5625 13.4268 10.1676 15.0248 11.1711 16.2934C7.73606 18.0657 5.29125 21.3185 4.51828 25.0766C3.00688 22.7487 2.125 19.9766 2.125 17C2.125 8.7975 8.7975 2.125 17 2.125ZM11.6875 11.6875C11.6875 8.75819 14.0707 6.375 17 6.375C19.9293 6.375 22.3125 8.75819 22.3125 11.6875C22.3125 14.6168 19.9293 17 17 17C14.0707 17 11.6875 14.6168 11.6875 11.6875ZM17 31.875C12.8456 31.875 9.08544 30.1607 6.38403 27.4051C6.47116 23.2321 9.02169 19.4799 12.843 17.8521C14.0303 18.6554 15.461 19.125 17 19.125C18.5385 19.125 19.9697 18.6554 21.157 17.8521C24.9783 19.4799 27.5288 23.2321 27.616 27.4051C24.9146 30.1607 21.1544 31.875 17 31.875Z" fill="white"/>
</g>
<defs>
<clipPath id="clip0_4707_12123">
<rect width="34" height="34" fill="white"/>
</clipPath>
</defs>
</svg>
