<svg width="37" height="37" viewBox="0 0 37 37" fill="none" xmlns="http://www.w3.org/2000/svg">
<g clip-path="url(#clip0_4704_11772)">
<path d="M32.3027 2.92676H4.69727C2.10719 2.92676 0 5.03395 0 7.62402V24.5824C0 27.1725 2.10719 29.2796 4.69727 29.2796H9.68981L8.14809 34.0732H28.8518L27.3102 29.2796H32.3027C34.8928 29.2796 37 27.1725 37 24.5824V7.62402C37 5.03395 34.8928 2.92676 32.3027 2.92676ZM2.16797 13.4168H10.8856V18.7895H2.16797V13.4168ZM11.1227 31.9053L11.9671 29.2796H25.0328L25.8773 31.9053H11.1227ZM34.832 24.5824C34.832 25.977 33.6974 27.1117 32.3027 27.1117H4.69727C3.30261 27.1117 2.16797 25.977 2.16797 24.5824V20.9575H11.6791L18.5 24.8955L25.3208 20.9575H34.832V24.5824ZM18.5 14.8515L14.1375 12.3329L18.5 9.81418L22.8625 12.3329L18.5 14.8515ZM23.9464 14.2104V19.2477L19.584 21.7663V16.7291L23.9464 14.2104ZM17.416 16.7291V21.7664L13.0536 19.2477V14.2105L17.416 16.7291ZM34.832 18.7895H26.1143V13.4168H34.832V18.7895ZM34.832 11.2489H25.3208L18.5 7.31082L11.6791 11.2489H2.16797V7.62402C2.16797 6.22937 3.30261 5.09473 4.69727 5.09473H32.3027C33.6974 5.09473 34.832 6.22937 34.832 7.62402V11.2489Z" fill="white"/>
</g>
<defs>
<clipPath id="clip0_4704_11772">
<rect width="37" height="37" fill="white"/>
</clipPath>
</defs>
</svg>
